<?xml version="1.0" encoding="utf-8"?>
<!-- Generator: Adobe Illustrator 17.0.0, SVG Export Plug-In . SVG Version: 6.00 Build 0)  -->
<!DOCTYPE svg PUBLIC "-//W3C//DTD SVG 1.1//EN" "http://www.w3.org/Graphics/SVG/1.1/DTD/svg11.dtd">
<svg version="1.1" id="图层_1" xmlns="http://www.w3.org/2000/svg" x="0px"
     y="0px"
     width="800px" height="398.17px" viewBox="0 0 800 398.17" enable-background="new 0 0 800 398.17"
     xml:space="preserve">
<g>
	<path d="M361.973,356.763c2.58,2.149,5.508,3.111,8.413,2.784c0.548-0.067,1.06-0.186,1.579-0.328
		c7.256-2.038,12.098-11.919,11.271-23.021c-0.405-5.709-2.334-10.857-5.214-14.585l-0.838,1.632
		c2.425,3.384,3.98,8.007,4.361,13.08c0.836,10.958-4.122,20.7-11.342,21.536c-2.456,0.287-4.932-0.567-7.142-2.419
		c-3.96-3.274-6.614-9.314-7.142-16.052c0.005-0.414,0.003-0.809-0.019-1.21l-1.672,0.091c0.015,0.394-0.027,0.801,0.01,1.222
		C354.785,346.729,357.667,353.167,361.973,356.763z"/>
    <path d="M360.603,359.128c2.879,2.514,6.147,3.721,9.482,3.429c0.713-0.035,1.425-0.202,2.133-0.402
		c8.068-2.242,13.556-13.286,12.84-25.626c-0.435-6.649-2.638-12.685-5.951-16.988l-0.84,1.623c2.863,3.969,4.712,9.469,5.08,15.473
		c0.761,12.524-5.246,23.59-13.422,24.21c-2.826,0.258-5.684-0.794-8.23-3.025c-4.475-3.895-7.454-10.895-7.904-18.701
		c-0.041-0.288-0.013-0.547-0.021-0.827l-1.689,0.069c0.018,0.276-0.029,0.559,0.015,0.836
		C352.565,347.489,355.776,354.896,360.603,359.128z"/>
    <path d="M363.352,354.406c2.287,1.779,4.855,2.504,7.402,2.102c0.303-0.073,0.653-0.136,0.985-0.219
		c6.463-1.837,10.637-10.616,9.707-20.423c-0.436-4.779-2.076-9.078-4.529-12.165l-0.853,1.68c1.958,2.776,3.328,6.517,3.707,10.627
		c0.871,9.284-3.246,17.87-9.307,18.801c-2.062,0.355-4.155-0.263-6.094-1.742c-3.392-2.664-5.725-7.679-6.293-13.444
		c-0.041-0.52-0.024-1.007-0.037-1.52l-1.68,0.07c0.023,0.544-0.006,1.042,0.042,1.609
		C357.005,345.977,359.583,351.463,363.352,354.406z"/>
    <path d="M364.701,352.049c2.008,1.415,4.212,1.915,6.399,1.431c0.153-0.022,0.258-0.057,0.406-0.091
		c5.614-1.602,9.17-9.449,8.144-17.861c-0.448-3.859-1.85-7.234-3.802-9.707l-0.891,1.682c1.544,2.168,2.645,4.997,3.01,8.211
		c0.094,0.632,0.103,1.285,0.145,1.948c-0.061-0.82-0.128-1.657-0.252-2.494c-0.473-2.88-1.585-5.39-3.103-7.259l-0.868,1.699
		c0.901,1.339,1.621,2.948,2.057,4.817c-0.459-1.778-1.251-3.326-2.221-4.472l-0.866,1.621c0.472,0.705,0.899,1.527,1.186,2.444
		c-0.33-0.835-0.815-1.547-1.368-2.136l-0.818,1.56c-1.516-1.452-3.743-1.181-4.941,0.794c-0.663,1.544-0.508,3.511-0.508,3.511
		l-1.915,0.066c0.033,1.104,0.182,2.175,0.572,3.214c1.069,3.029,3.462,4.649,5.748,4.015c0.521-0.14,1.031-0.422,1.493-0.766
		c1.118-0.891,1.848-2.336,2.229-3.945c-0.447,2.563-1.685,4.698-3.41,5.517c-1.103,0.528-2.225,0.449-3.283-0.213
		c-1.544-0.925-2.794-2.878-3.341-5.356c-0.157-0.806-0.241-1.637-0.272-2.458l-1.685,0.066c0.022,0.925,0.093,1.841,0.315,2.791
		c0.683,2.905,2.179,5.264,4.12,6.425c1.306,0.765,2.674,0.984,4.014,0.601c0.301-0.076,0.579-0.199,0.844-0.316
		c2.531-1.239,4.195-4.409,4.518-8.023c-0.321,4.585-2.372,8.486-5.417,9.447l-0.173,0.06c-1.281,0.363-2.645,0.114-3.918-0.693
		c-2.207-1.425-3.894-4.455-4.473-8.104c-0.138-0.725-0.19-1.446-0.199-2.147l-1.688,0.044c0.021,0.797,0.078,1.607,0.22,2.354
		c0.661,4.13,2.608,7.574,5.26,9.292c1.637,1.066,3.491,1.374,5.278,0.895l0.206-0.066c4.048-1.301,6.767-6.688,6.656-12.672
		c0.153,6.721-2.794,12.774-7.093,13.98l-0.302,0.073c-1.698,0.378-3.457-0.001-5.046-1.167c-2.822-2.037-4.871-6.057-5.455-10.79
		c-0.053-0.63-0.066-1.249-0.094-1.859l-1.677,0.074c0.021,0.647,0.025,1.313,0.101,1.969
		C359.185,345.251,361.503,349.744,364.701,352.049z M371.276,342.924c-1.633,1.3-3.683,0.144-4.624-2.463
		c-0.038-0.13-0.043-0.24-0.09-0.383c0.201,0.504,0.45,1.033,0.773,1.433c0.909,1.152,2.166,1.66,3.346,1.329
		c0.429-0.126,0.781-0.331,1.121-0.609C371.638,342.451,371.481,342.739,371.276,342.924z"/>
    <path d="M347.813,338.653c0.316,8.156,2.699,15.746,6.726,21.376c4.103,5.724,9.391,8.784,14.915,8.57
		c1.083-0.035,2.203-0.196,3.28-0.524c9.837-2.74,16.5-15.753,15.887-30.89c-0.338-8.134-2.715-15.707-6.749-21.341
		c-4.091-5.745-9.378-8.792-14.901-8.578c-1.106,0.042-2.18,0.2-3.28,0.513C353.864,310.524,347.166,323.546,347.813,338.653z
		 M364.15,309.403c0.97-0.27,1.934-0.408,2.888-0.457c4.381-0.161,8.584,2.14,12.119,6.297c0.872,0.925,1.348,1.594,1.348,1.594
		c3.838,5.382,6.127,12.623,6.45,20.411c0.573,14.147-5.75,26.679-14.689,29.2c-0.93,0.253-1.896,0.422-2.848,0.446
		c-4.927,0.193-9.736-2.605-13.495-7.87c-3.848-5.364-6.112-12.617-6.447-20.381C348.895,324.462,355.217,311.904,364.15,309.403z"
    />
    <path d="M359.23,361.48c3.193,2.89,6.838,4.295,10.526,4.105c0.932-0.065,1.825-0.201,2.722-0.471
		c9.001-2.543,15.037-14.406,14.341-28.259c-0.357-7.567-2.787-14.537-6.57-19.51l-0.849,1.668
		c3.306,4.648,5.399,11.017,5.742,17.922c0.619,12.865-5.005,24.253-13.13,26.541c-0.785,0.22-1.551,0.355-2.371,0.404
		c-3.228,0.184-6.436-1.101-9.279-3.656c-5.056-4.559-8.32-12.53-8.731-21.354c-0.024-0.149,0.001-0.316,0.018-0.482l-1.711,0.085
		c-0.007,0.17-0.001,0.308,0.018,0.468C350.383,348.2,353.866,356.635,359.23,361.48z"/>
    <path d="M784.963,25.941C759.762,14.89,728.636,4.944,716.374,1.818c-15.066-3.817-38.277-1.438-58.987,5.41
		c-2.218,0.573-4.4,1.124-6.621,1.723L589.491,29.87l-0.006-0.216L297.214,59.633c-0.783-0.652-1.711-0.995-2.817-0.832
		c-2.222,0.364-4.46,2.25-5.469,4.479L64.79,209.054L1.817,230.553c-0.68,0.234-1.226,0.714-1.549,1.371
		c-0.307,0.64-0.35,1.346-0.129,1.996c0.466,1.353,1.862,2.122,3.261,1.732l6.125-2.066c12.542-2.859,16.711-4.192,34.069,2.538
		c18.29,7.057,30.995,10.653,38.673,12.698c7.65,2.05,14.429,2.278,29.606-1.574c2.485-0.626,10.035-2.861,20.795-6.146
		l27.979-7.967c10.183-3.137,21.293-6.587,32.869-10.162c-0.496,3.256-0.741,6.587-0.765,9.885c-0.107,2.786,0.347,8.206,0.358,8.3
		c0.764,6.788,2.395,13.221,4.74,18.675c2.074,4.818,4.958,9.022,8.249,12.579c6.252,7.771,13.832,12,21.709,13.813
		c0.665,0.22,1.32,0.412,1.962,0.554l1.666,43.199c-2.745-1.083-5.594-1.575-8.472-1.325c-1.151,0.103-2.283,0.301-3.407,0.607
		c-12.031,3.375-19.927,18.963-18.4,36.238c0.815,9.228,4.143,17.691,9.352,23.84c5.285,6.229,11.894,9.335,18.602,8.765
		c1.136-0.084,2.28-0.297,3.378-0.597c10.927-3.068,18.362-16.197,18.525-31.514l91.221-19.138
		c1.34,6.657,3.908,12.736,7.625,17.593c5.269,6.847,12.04,10.516,19.108,10.223c1.516-0.047,3-0.271,4.47-0.694
		c12.497-3.507,21.017-19.151,20.269-37.175c-0.792-20.385-13.257-36.539-27.741-35.999c-1.509,0.061-3,0.279-4.468,0.691
		c-4.101,1.158-7.782,3.654-10.822,7.085l-2.85-24.833c2.662-0.088,4.906-0.172,6.44-0.164c16.822-0.171,31.929-1.904,57.733-6.72
		c22.583-4.208,117.348-24.725,154.363-32.992l-0.371,0.099c2.707-0.45,2.589,1.957,3.363,4.097c0.751,2.151,1.318,3.103,2.26,2.994
		c0.877-0.093,1.733-1.432,0.655-8.551c4.731-1.047,7.838-1.776,8.726-2.015c7.347-2.083,10.267-13.274,9.367-23.235
		c-0.056-0.583-0.124-1.278-0.198-1.996c31.979-5.857,75.042-13.764,81.744-15.129c2.922-0.585,5.166-1.122,6.907-1.622
		c4.206-1.167,5.562-2.131,5.562-3.998c0.002-0.474-0.208-0.91-0.591-1.221c-1.457-1.264-6.696-1.731-35.099,3.201
		c-6.222,1.038-12.971,2.23-20.001,3.457c-0.89,0.159-1.778,0.296-2.668,0.463l0.065-0.201l-39.525-10.802
		c-1.331-7.564-2.913-14.629-4.576-18.691c-0.275-0.649-0.555-1.338-0.815-1.961c-1.749-4.419-3.392-8.557-7.332-9.865
		c-4.066-1.354-10.015,0.586-18.723,6.007c-5.047,3.153-10.131,7.378-14.889,11.912l-0.096-0.024l-0.03,0.134
		c-12.813,12.243-23.324,26.709-25.213,29.395c-0.733-0.12-2.112-0.326-3.944-0.618c-0.25-0.029-0.529-0.092-0.725-0.144
		l-0.01,0.064c-10.572-1.662-34.937-5.363-57.426-8.733l105.524-82.946l0.063-0.014l5.649,3.892c0,0,207.753-65.977,221.627-70.207
		C801.786,42.669,807.831,35.92,784.963,25.941z M583.639,31.835L434.53,82.745l-135.428-21.24c-0.081-0.17-0.185-0.323-0.268-0.468
		L583.639,31.835z M300.284,63.594l130.801,20.51l-99.03,33.829l0.379-0.225C331.295,115.739,307.907,75.93,300.284,63.594z
		 M323.701,113.402l-11.187-19.44l-0.982-3.3l16.318,28.811l-2.936,1l-10.365-19.566l-0.58-1.998l8.686,15.114
		c0.162,0.235,0.439,0.314,0.703,0.244c0.055-0.013,0.085-0.026,0.12-0.05C323.764,114.054,323.888,113.697,323.701,113.402z
		 M310.069,85.563l-1.33-4.502c7.23,12.131,16.113,27.186,22.085,37.389l-1.795,0.629L310.069,85.563z M323.316,121.109
		l-42.607,14.519l15.901-64.98L323.316,121.109z M289.821,67.248c1.499-3.493,2.964-4.688,5.721-0.298
		c-3.169,3.998-3.938,8.308-5.249,13.755c-4.497,18.845-9.304,37.607-13.94,56.448l-4.191,1.436
		C277.487,116.659,286.889,78.101,289.821,67.248z M270.337,139.029l0.489,0.133l-91.839,31.366L287.632,68.902
		C283.339,85.356,270.946,136.525,270.337,139.029z M287.268,67.069L175.083,171.986L71.631,207.321L287.268,67.069z
		 M225.93,281.286c-12.676-2.143-22.203-11.426-27.252-23.633c-1.972-5.085-3.343-10.861-3.975-16.944
		c-0.006-0.061-0.349-5.113-0.279-8.237c0.049-4.473,0.494-9.028,1.458-13.449c0.028-0.085,0.029-0.199,0.07-0.3
		c0.206-0.902,0.457-1.808,0.714-2.724c1.306-4.437,3.049-8.569,5.162-12.317c1.264-2.124,2.652-4.174,4.286-6.049
		c4.984-5.783,9.576-9.469,13.84-11.861c4.96-2.413,10.281-3.512,15.735-2.981c7.182,0.783,13.795,4.35,19.182,10.452
		c0.24,0.266,0.615,0.289,0.841,0.074c0.266-0.227,0.303-0.615,0.042-0.871c-5.581-6.322-12.483-10.067-19.943-10.85
		c-0.706-0.068-1.367-0.046-2.049-0.078c1.843-0.197,3.698-0.288,5.443-0.401l1.665-0.061l7.329,0.158
		c8.04,0.475,19.865,1.721,30.712,2.828c9.34,1.008,18.126,1.938,23.156,2.229c9.839,0.565,19.596,2.553,28.993,5.929
		c0.811,0.275,1.608,0.593,2.492,0.931c1.227,0.438,2.538,0.941,3.903,1.436l-4.642,8.441l-71.177-2.459
		c-0.484-0.026-0.87,0.353-0.886,0.825c0.002,0.473,0.374,0.846,0.841,0.862l70.274,2.449l-1.771,3.221l-66.307-0.453
		c-0.452-0.016-0.826,0.357-0.851,0.846c0.012,0.453,0.397,0.86,0.845,0.841l65.391,0.432l-1.832,3.306l-61.719-0.455
		c-0.452-0.016-0.826,0.357-0.851,0.846c0.012,0.453,0.397,0.859,0.845,0.841l60.802,0.433l-1.855,3.346l-57.964-0.455
		c-0.452-0.016-0.826,0.357-0.851,0.846c0.012,0.453,0.397,0.859,0.845,0.841l57.047,0.434l-1.867,3.368l-54.358-0.441
		c-0.452-0.016-0.826,0.357-0.851,0.846c0.011,0.454,0.397,0.86,0.845,0.841l53.441,0.42l-1.873,3.379l-51.155-0.454
		c-0.452-0.016-0.826,0.357-0.851,0.846c0.011,0.454,0.397,0.86,0.845,0.841l50.238,0.432l-0.091,0.163l-1.86,3.33l-48.341-0.929
		c-0.455,0.005-0.855,0.367-0.871,0.828c0.002,0.481,0.371,0.866,0.884,0.896l47.399,0.885l-1.858,3.386l-46.327-0.785
		c-0.465-0.004-0.847,0.377-0.843,0.851c-0.027,0.452,0.355,0.858,0.82,0.87l45.427,0.752l-1.864,3.345l-44.289-0.617
		c-0.474,0.02-0.852,0.395-0.881,0.863c0.029,0.447,0.404,0.834,0.871,0.841l43.357,0.624l-1.868,3.407l-42.696-0.525
		c-0.452-0.017-0.826,0.357-0.851,0.846c0.011,0.453,0.397,0.86,0.845,0.84l41.76,0.5l-1.866,3.401l-41.64-0.372
		c-0.476-0.004-0.849,0.346-0.847,0.813c0.007,0.459,0.369,0.875,0.857,0.863l40.681,0.379l-1.876,3.405l-40.123-0.28
		c-0.467-0.014-0.862,0.377-0.85,0.844c-0.006,0.483,0.354,0.862,0.877,0.851l39.156,0.28l-1.413,2.638l-39.903-0.225
		C252.94,272.658,241.364,283.873,225.93,281.286z M259.646,164.861c0.167,0.147,0.358,0.176,0.579,0.11
		c0.091-0.032,0.216-0.081,0.291-0.151l8.866-10.152c0.032,0.601,0.047,1.23,0.102,1.957l-21.419,22.867
		c-1.548-0.096-2.978-0.174-4.191-0.186c4.815-5.158,20.472-22.023,25.65-27.835c-0.014,0.178-0.1,0.342-0.101,0.53
		c-0.022,0.232-0.005,0.552-0.05,0.835l-9.763,11.15C259.376,164.238,259.423,164.625,259.646,164.861z M269.521,158.34
		l-0.021,1.554l-18.572,19.674l-1.259-0.03L269.521,158.34z M337.34,166.602c0.126,0.036,0.243,0.03,0.351,0.021
		c0.193-0.073,0.34-0.199,0.405-0.407l2.897-9.006l1.196-0.388l-9.88,29.483c-0.319,0.087-0.652,0.209-0.994,0.334l3.134-9.72
		c0.101-0.336-0.084-0.65-0.406-0.777c-0.317-0.086-0.647,0.09-0.75,0.411l-3.385,10.541c-0.388,0.148-0.759,0.286-1.133,0.411
		l9.677-29.431l1.105-0.399l-2.626,8.153C336.85,166.158,337.016,166.476,337.34,166.602z M385.022,148.034l38.726-0.447l0.004-0.01
		l1.146-0.016l0.021,0.011l18.262-0.211l116.024-95.476l4.06-1.117l-117.143,96.337l0.256,0.006l38.734-11.611l-13.115,13.336
		l-25.365,17.485c-10.93-1.181-18.821-1.858-21.604-2.07l20.565-16.936l-2.415,0.047l-27.239,22.408l9.549-21.912l-0.572-0.287
		l-1.169,0.015l-10.691,24.561l-10.374,8.529c-5.895-0.946-12.952-1.864-19.993-2.569l3.617-30.06L385.022,148.034z
		 M360.852,172.174l-1.196,12.703c-0.418-0.156-0.843-0.275-1.203-0.401l-0.082-0.192l1.25-12.965
		C360.012,171.491,360.424,171.788,360.852,172.174z M359.798,169.587l0.299-2.966c0.321,0.857,0.639,1.91,0.789,3.187
		c-0.296-0.094-0.591-0.108-0.918-0.17C359.914,169.619,359.858,169.606,359.798,169.587z M358.114,169.548
		c-1.743-0.036-3.59,0.195-5.342,0.555l6.429-11.67L358.114,169.548z M357.911,171.229l-0.999,10.577l-5.469-9.322l0.164-0.325
		C353.593,171.572,355.9,171.224,357.911,171.229z M352.815,182.826c-1.787-0.356-4.274-0.275-7.172,0.155l3.503-6.357
		L352.815,182.826z M343.482,183.371c-0.142,0.024-0.302,0.067-0.433,0.092c1.181-2.557,3.104-6.623,4.87-8.935l0.238,0.409
		L343.482,183.371z M344.547,184.919c3.78-0.647,6.891-0.832,8.583-0.338c1.906,0.531,3.384,2.381,3.417,4.319
		c-0.002,0.124-0.061,0.248-0.059,0.36c-2.975-1.643-8.495-1.276-14.31-0.011L344.547,184.919z M339.97,189.785
		c-1.914,0.487-3.758,1.064-5.576,1.663c-0.103-0.01-0.203-0.059-0.304-0.098c-0.862-0.337-1.659-0.651-2.509-0.931
		c-1.005-0.366-1.994-0.704-3.006-1.038c4.673-1.771,9.571-3.159,13.864-4.022L339.97,189.785z M352.52,195.287
		c5.213-1.694,5.706-5.051,5.689-6.42c-0.007-1.049-0.442-2.057-0.964-2.981c0.042,0.034,0.126,0.036,0.164,0.057l-0.058,0.084
		c5.118,3.481,9.217,10.49,10.562,18.025l-33.282-1.163l4.433-7.99C343.185,196.132,347.783,196.86,352.52,195.287z
		 M361.439,187.304c7.412,2.591,16.231,6.002,20.183,7.75c0.813,0.349,1.697,0.706,2.579,1.077l-10.054,8.224l-4.47-0.327
		C368.556,197.565,365.478,191.452,361.439,187.304z M364.323,186.51c0.249-0.833,0.943-3.401,0.989-6.546
		c0.057,0.016,0.148,0.018,0.198,0.03c0.332,2.083,0.467,4.473,0.361,7.077C365.347,186.893,364.842,186.689,364.323,186.51z
		 M369.376,245.501l-0.002-1.97l9.741,0.326l-1.783,1.821L369.376,245.501z M375.913,247.118l-1.808,1.906l-4.763-0.148l0.012-1.965
		L375.913,247.118z M369.408,242.12l0.011-2.012l12.887,0.491l-1.783,1.838L369.408,242.12z M369.414,238.738l0.05-2.016
		l16.012,0.644l-1.758,1.812L369.414,238.738z M369.456,235.331l0.03-2.052l19.153,0.878l-1.725,1.801L369.456,235.331z
		 M369.513,231.93l0.011-2.071l22.234,1.098l-1.703,1.756L369.513,231.93z M369.529,228.482l0.018-2.059l25.344,1.368l-1.707,1.729
		L369.529,228.482z M369.581,225.057l0.015-2.091l28.417,1.625l-1.677,1.742L369.581,225.057z M370.863,209.246l12.712,0.9
		l-2.671,1.853l-11.186-0.692l0.01-1.152L370.863,209.246z M369.743,207.84l0.042-2.046l2.452,0.154l-2.307,1.9L369.743,207.84z
		 M398.082,198.755c0.673-0.186,1.26-0.456,1.789-0.838c1.302-0.951,2.055-2.093,2.252-3.387c0.159-0.88-0.006-1.647-0.225-2.3
		c0.433-0.005,0.838-0.023,1.23-0.014c0.904,0.512,1.743,1.481,2.452,2.734l-15.294,10.546l-13.75-0.975l9.392-7.729
		C390.37,198.467,394.896,199.667,398.082,198.755z M390.316,193.18l1.275-1.063c2.789,0.06,5.833,0.08,8.504,0.105
		c0.239,0.456,0.515,1.211,0.403,2.047c-0.132,0.821-0.705,1.581-1.599,2.252c-0.016,0.012-0.032,0.018-0.032,0.018
		c-0.521-0.629-1.484-1.547-3.409-2.525C394.085,193.316,392.202,193.101,390.316,193.18z M406.351,196.509
		c0.771,1.873,1.339,4.185,1.451,6.496c0.108,1.841,0.118,3.027,0.202,3.742l-14.98-1.062L406.351,196.509z M405.695,192.168
		c0.453,0,0.829-0.002,1.121-0.02c0.336,0.019,1.176,0.074,2.445,0.248l-2.274,1.58
		C406.569,193.272,406.149,192.711,405.695,192.168z M379.108,215.271l2.668-1.844l25.476,1.742l-1.639,1.667L379.108,215.271z
		 M404.174,218.315l-1.643,1.666l-28.025-1.546l2.748-1.886L404.174,218.315z M383.69,212.106l2.609-1.786l23.977,1.748
		l-1.583,1.605L383.69,212.106z M388.176,209.018l2.572-1.791l22.695,1.645l-1.687,1.723L388.176,209.018z M388.045,207.077
		l-2.596,1.806l-13.096-0.903l2.249-1.88L388.045,207.077z M379.064,213.276l-2.749,1.869l-6.633-0.377l0.027-2.123L379.064,213.276
		z M374.496,216.409l-2.763,1.917l-2.078-0.114l0.022-2.1L374.496,216.409z M369.916,221.649l2.773-1.944l28.429,1.733l-1.675,1.711
		L369.916,221.649z M400.093,224.668l13.611,0.797l-1.973,1.528l-13.303-0.63L400.093,224.668z M401.525,223.202l1.665-1.666
		l14.371,0.876l-1.925,1.523L401.525,223.202z M404.64,220.032l1.615-1.646l15.166,0.989l-1.885,1.484L404.64,220.032z
		 M407.732,216.89l1.589-1.628l15.918,1.104l-1.858,1.466L407.732,216.89z M410.819,213.776l1.557-1.601l16.644,1.183l-1.797,1.434
		L410.819,213.776z M413.872,210.659l1.647-1.701l17.512,1.275l-2.024,1.567l-1.087-0.082L413.872,210.659z M414.997,207.221
		l-5.311-0.384c-0.023-0.7-0.096-1.936-0.201-3.964c-0.126-2.41-0.737-5.092-1.731-7.388l4.045-2.813
		c3.592,0.488,8.92,1.227,15.353,2.165L414.997,207.221z M411.394,190.884c-2.364-0.296-3.957-0.458-4.482-0.468l7.429-17.056
		l8.993-7.416c1.805,0.476,8.89,2.178,18.647,3.919L411.394,190.884z M408.759,181.909c-1.182-0.196-2.511-0.447-3.919-0.678
		l6.616-5.47L408.759,181.909z M408.178,183.305l-3.144,7.192c-2.843-0.008-7.263-0.008-11.417-0.055l8.798-7.23
		C405.226,183.304,407.253,183.302,408.178,183.305z M391.05,190.417c-3.418-0.053-6.297-0.18-7.377-0.318l-2.45-0.346l0.949-7.777
		c0.545,0.056,1.016,0.117,1.61,0.163c6.257,0.553,11.779,0.86,16.081,1.023L391.05,190.417z M383.411,191.81
		c0.92,0.151,3.03,0.233,5.613,0.283l-1.866,1.539c-0.953,0.228-1.794,0.508-2.464,0.862c-0.952-0.387-1.79-0.748-2.408-1.024
		c-0.691-0.317-1.559-0.651-2.496-1.037l1.082-1.014L383.411,191.81z M379.454,190.41l0.019,0.013l-1.426,1.307
		c-3.002-1.218-6.742-2.662-10.516-4.07c0.142-2.753,0.01-5.206-0.281-7.38c2.268,0.35,6.471,0.931,13.229,1.574L379.454,190.41z
		 M369.327,250.323l3.403,0.055l-1.885,1.9l-1.535-0.016L369.327,250.323z M371.591,253.725l6.075,0.131l-2.322,1.839l-5.595-0.079
		L371.591,253.725z M372.991,252.312l1.841-1.889l6.949,0.182l-2.296,1.801L372.991,252.312z M376.222,249.003l1.833-1.833
		l7.814,0.225l-2.246,1.771L376.222,249.003z M379.446,245.727l1.805-1.823l8.672,0.288l-2.209,1.742L379.446,245.727z
		 M382.641,242.477l1.796-1.835l9.5,0.38l-2.168,1.711L382.641,242.477z M385.831,239.214l1.736-1.797l10.398,0.458l-2.137,1.647
		L385.831,239.214z M388.989,235.993l1.754-1.783l11.165,0.521l-2.048,1.655L388.989,235.993z M392.169,232.778l1.696-1.731
		l12.021,0.592l-2.032,1.583L392.169,232.778z M395.313,229.563l1.679-1.735l12.816,0.704l-2.004,1.591L395.313,229.563z
		 M408.36,231.557l14.833,0.747l91.829,3.998c16.128,0.713,32.281,1.304,48.417,1.959c0.279,0.342,0.594,0.64,0.854,0.964
		c0.044,0.09,0.088,0.171,0.143,0.275c0.21,0.332,0.38,0.619,0.549,0.973c-16.974-0.853-33.975-1.745-50.988-2.495l-91.81-4.202
		l-15.834-0.638L408.36,231.557z M563.338,235.635c-0.098-0.081-0.16-0.132-0.294-0.24l-0.581-15.413
		c0.437-0.077,0.902-0.172,1.4-0.261l0.466,16.8C564.012,236.225,563.695,235.923,563.338,235.635z M562.805,237.577
		c0.028,0.033,0.088,0.084,0.116,0.11c-15.935-0.853-31.895-1.764-47.848-2.502l-91.795-4.586l-12.973-0.553l1.967-1.542
		l12.002,0.591l91.841,4.37c14.641,0.729,29.316,1.312,43.929,1.962c0.342,0.31,0.697,0.602,1.048,0.816
		C561.761,236.625,562.305,237.107,562.805,237.577z M559.323,231.457l-0.417-10.808c0.437-0.099,0.894-0.186,1.388-0.289
		l0.367,13.098C560.214,232.908,559.748,232.225,559.323,231.457z M559.485,234.78c-14.424-0.828-28.885-1.696-43.34-2.443
		l-91.761-4.92l-10.153-0.474l1.935-1.518l9.23,0.516l91.783,4.733c13.607,0.701,27.234,1.288,40.803,1.917
		C558.461,233.454,558.958,234.16,559.485,234.78z M517.232,229.512l-91.759-5.245l-7.339-0.383l1.892-1.493l6.452,0.405
		l91.795,5.054c12.803,0.715,25.61,1.301,38.392,1.965c0.309,0.754,0.634,1.472,0.988,2.144
		C544.198,231.145,530.721,230.296,517.232,229.512z M555.808,222.164c-0.094-0.326-0.17-0.602-0.264-0.909
		c0.323-0.059,0.718-0.13,1.216-0.214l0.11,4.473C556.506,224.35,556.139,223.188,555.808,222.164z M555.618,227.036
		c0.241,0.745,0.508,1.425,0.777,2.107c-12.677-0.817-25.377-1.708-38.062-2.443l-91.751-5.617l-4.58-0.235l1.843-1.482l3.717,0.228
		l91.765,5.429C531.447,225.765,543.503,226.363,555.618,227.036z M519.407,223.893l-91.723-5.962l-1.847-0.124l1.831-1.424
		l0.976,0.063l91.765,5.748c11.43,0.765,22.872,1.365,34.289,2.028c0.222,0.713,0.445,1.418,0.678,2.118
		C543.383,225.512,531.393,224.64,519.407,223.893z M520.477,221.063l-90.807-6.271l1.809-1.4l90.018,5.984
		c10.758,0.765,21.568,1.36,32.325,2.045c0.149,0.458,0.292,0.899,0.445,1.385c0.064,0.221,0.132,0.446,0.216,0.691
		C543.163,222.705,531.802,221.835,520.477,221.063z M521.562,218.239l-88.126-6.421l2.009-1.58l116.811,8.413l0.365,0.021
		c0.319,0.491,0.621,1.063,0.846,1.762c0.026,0.06,0.07,0.143,0.112,0.217C542.876,219.868,532.219,218.999,521.562,218.239z
		 M435.04,208.63l-17.948-1.287l12.036-12.241c5.815,0.825,12.455,1.807,19.495,2.857L435.04,208.63z M428.621,193.275
		c-5.867-0.847-10.926-1.588-14.732-2.065l30.448-20.964c1.941,0.322,3.914,0.643,5.95,0.922L428.621,193.275z M449.152,166.841
		l16.468-11.317l-11.667,11.886c-0.747-0.094-1.541-0.201-2.292-0.273C450.786,167.045,450.001,166.949,449.152,166.841z
		 M380.982,178.241c-5.017-0.442-9.883-0.772-14.232-0.866c-0.798-3.216-2.048-5.475-3.373-6.576
		c-0.17-0.147-0.396-0.224-0.61-0.342l2.042-21.364l1.629-0.54l18.125-0.225L380.982,178.241z M364.274,149.3l0.08-0.018
		l-0.102,0.051L364.274,149.3l-2.386,0.793l18.996-34.398l2.294-0.65L364.274,149.3z M362.386,174.156
		c0.622,1.184,1.118,2.632,1.203,4.26c0.218,3.453-0.565,6.594-0.82,7.55c-0.507-0.184-1.009-0.354-1.468-0.529L362.386,174.156z
		 M350.532,170.703c-0.025,0.006-0.039,0.01-0.057,0.016l-7.079-12.123l0.865-2.555l17.625-5.947L350.532,170.703z M347.019,173.009
		c-1.857,2.143-3.707,5.91-5.574,9.91l-0.455,0.969c-2.178,0.469-4.412,1.058-6.687,1.774l7.315-21.817L347.019,173.009z
		 M330.007,178.42c-0.377-3.146-1.163-10.864-1.309-17.085l7.741-2.587L330.007,178.42z M329.403,180.121l-2.667,8.18
		c-0.243,0.12-0.52,0.2-0.758,0.279c-3.627-1.041-7.294-1.903-11.004-2.586l-0.935-1.049
		C322.134,182.413,327.607,180.715,329.403,180.121z M309.054,177.717l0.543,1.935l-9.992-11.029
		c3.655-0.818,6.846-0.491,10.064,2.764c2.437,2.432,4.114,4.351,5.07,5.511L309.054,177.717z M312.262,185.492l-1.739-0.208
		l-0.02-0.058l-11.415-13.196c-0.212-0.241-0.595-0.275-0.858-0.056c-0.255,0.216-0.286,0.59-0.065,0.865l10.612,12.229
		l-1.713-0.241c-1.703-2.039-12.985-15.612-19.277-22.08l-1.067-1.118c-5.946-6.112-8.086-8.209-9.772-7.731
		c-1.555,0.432-1.399,2.697-1.309,3.688c0.318,5.005,1.224,20.221,1.482,24.357l-4.837-0.712c-0.278-8.303-0.62-14.688-0.905-19.34
		c-0.052-1.472-0.153-2.736-0.195-3.891l0.006-6.616c0.29-1.48,1.123-2.559,2.303-2.897c1.323-0.383,2.982,0.056,4.829,1.186
		c4.19,2.546,9.621,8.704,15.37,15.2c1.365,1.566,2.791,3.124,4.2,4.685L312.262,185.492z M341.011,339.004l-44.829,9.864
		c0.048-0.12,0.088-0.225,0.063-0.365l-8.393-61.969c1.873-0.085,3.735-0.159,5.648-0.246c1.457-0.06,2.911-0.138,4.378-0.195
		l43.194,47.547C340.963,335.395,340.942,337.184,341.011,339.004z M238.031,337.249l-0.011-0.232
		c0.694,0.633,1.402,1.285,2.032,2.044c1.69,1.965,3.081,4.252,4.309,6.722l-0.102,0.156
		C242.57,342.557,240.473,339.613,238.031,337.249z M243.484,347.36l-0.058,0.109c-1.111-2.413-2.357-4.71-3.909-6.653
		c-0.475-0.594-0.965-1.091-1.483-1.609l0.011-0.131c0.488,0.572,0.975,1.134,1.473,1.74
		C241.063,342.738,242.359,344.989,243.484,347.36z M241.405,337.92c-1.092-1.265-2.212-2.353-3.366-3.328l-0.916-44.74
		l22.871,27.713l-14.579,26.423C244.212,341.79,242.955,339.728,241.405,337.92z M234.599,294.697l2.767,67.357l-1.152,0.213
		L234.599,294.697z M235.037,362.573l-1.318,0.248l-2.223-75.03c0.031,0.019,0.029,0.033,0.064,0.042L235.037,362.573z
		 M255.249,306.25c1.797,1.137,3.675,2.608,5.548,4.503l22.117,26.75c0.29,0.969,0.677,2.232,1.08,3.52L255.249,306.25z
		 M282.425,341.012c-1.332-1.17-3.224-3.123-5.161-5.18l-26.397-31.997c0.451,0.213,0.904,0.457,1.374,0.703L282.425,341.012z
		 M244.604,288.384c7.278-0.244,18.963-0.698,32.245-1.283l-13.361,24.179L244.604,288.384z M245.923,353.806
		c0.531,1.937,0.998,3.944,1.278,6.037l-0.23,0.036c-0.288-2-0.678-3.942-1.177-5.866L245.923,353.806z M246.755,352.24l0.123-0.18
		c0.75,2.401,1.344,4.901,1.71,7.474l-0.19,0.029C248.044,357.035,247.5,354.585,246.755,352.24z M247.982,350.02l15.597-28.068
		l23.926,28.973l-37.251,8.222C249.786,355.938,249.015,352.9,247.982,350.02z M267.075,315.644l14.54-26.211l7.103,52.428
		L267.075,315.644z M282.956,286.924l0.095-0.109c0.064-0.014,0.164-0.016,0.218-0.021l7.883,57.988l-0.408-0.493L282.956,286.924z
		 M284.482,286.736c0.087,0.012,0.196-0.007,0.285-0.023l7.464,55.012c0.054,0.328,0.373,0.579,0.693,0.548
		c0.017-0.006,0.028-0.01,0.083-0.023c0.264-0.09,0.47-0.357,0.435-0.682l-7.469-54.886c0.051-0.021,0.103-0.027,0.195-0.031
		l8.432,62.108c0.042,0.204,0.135,0.336,0.262,0.454l-0.059,0.02l-2.183-2.692L284.482,286.736z M340.42,325.7
		c-0.854-0.663-11.533-9.511-18.385-15.612l-40.942-45.049l1.376-0.054l19.792,22.312c0.143,0.18,0.384,0.256,0.61,0.193
		c0.077-0.023,0.156-0.051,0.212-0.135c0.288-0.214,0.296-0.61,0.067-0.853l-19.152-21.582l2.965-0.108l53.948,60.071
		C341.025,325.561,340.923,326.152,340.42,325.7z M342.986,230.154l-3.928,3.235l-21.042-0.385l1.824-3.352L342.986,230.154z
		 M348.934,225.217l-3.931,3.241l-24.207-0.52l1.834-3.33L348.934,225.217z M337.014,235.044l-3.996,3.315l-17.794-0.308
		l1.834-3.353L337.014,235.044z M331.013,240.053l-4.041,3.261l-14.562-0.188l1.872-3.385L331.013,240.053z M324.954,245.002
		l-4.041,3.342l-11.313-0.146l1.874-3.365L324.954,245.002z M318.89,250.031l-4.106,3.331l-7.989-0.045l1.859-3.393L318.89,250.031z
		 M312.775,255.068l-4.121,3.377l-4.66-0.039l1.866-3.398L312.775,255.068z M306.603,260.151l-3.162,2.585l-1.842,0.011l1.441-2.645
		L306.603,260.151z M305.97,262.746l3.165-2.601l2.09,0.025l-3.776,2.589L305.97,262.746z M311.177,258.436l4.08-3.356l3.263,0.023
		l-4.88,3.355L311.177,258.436z M317.322,253.383l4.051-3.327l4.407,0.042l-4.827,3.318L317.322,253.383z M323.417,248.359
		l4.034-3.332l5.553,0.099l-4.777,3.288L323.417,248.359z M329.506,243.34l4.002-3.308l6.63,0.124l-4.711,3.26L329.506,243.34z
		 M335.526,238.368l3.971-3.272l7.819,0.143l-4.752,3.247L335.526,238.368z M341.532,233.379l3.961-3.228l8.865,0.203l-4.629,3.206
		L341.532,233.379z M347.514,228.504l3.926-3.261l9.975,0.248l-4.632,3.173L347.514,228.504z M350.939,223.583l-27.364-0.665
		l1.844-3.327l29.441,0.764L350.939,223.583z M326.368,217.885l1.785-3.298l32.582,0.925l-3.89,3.18L326.368,217.885z
		 M329.098,212.881l1.804-3.282l35.67,1.08l-3.849,3.183L329.098,212.881z M231.776,396.422c-1.008,0.297-2.04,0.481-3.086,0.592
		c-6.142,0.494-12.221-2.403-17.16-8.204c-4.998-5.871-8.182-14.019-8.956-22.884c-1.444-16.462,5.952-31.276,17.188-34.428
		c1.016-0.285,2.058-0.475,3.102-0.558c2.853-0.28,5.663,0.265,8.402,1.437l0.067,1.892c-2.37-1.047-4.827-1.575-7.329-1.385
		c-0.854,0.069-1.736,0.264-2.576,0.501c-10.026,2.795-16.588,16.678-15.217,32.235c1.508,17.08,11.956,30.208,23.307,29.245
		c0.87-0.083,1.718-0.24,2.594-0.484c8.904-2.503,14.946-13.717,15.244-27.084l0.215-0.049c-0.137,6.52-1.554,12.681-4.364,17.69
		c-3.497,6.217-8.524,9.893-14.173,10.372c-11.699,1.016-22.505-12.277-24.023-29.602c-0.117-1.316-0.181-2.663-0.199-3.967
		c-0.002-0.333-0.262-0.602-0.6-0.604c-0.361,0.007-0.61,0.271-0.604,0.602c0,1.326,0.054,2.714,0.173,4.086
		c1.612,17.988,12.98,31.763,25.364,30.708c1.039-0.085,1.998-0.259,2.981-0.526c4.821-1.356,9.079-5,12.133-10.464
		c2.938-5.224,4.412-11.719,4.527-18.545l0.319-0.07C248.826,381.326,241.901,393.611,231.776,396.422z M226.235,368.307
		c-0.06-0.1-0.121-0.171-0.148-0.316c-0.209-0.967,0.526-1.915,1.389-2.152c0.014,0.001,0.014,0.001,0.024-0.003l113.45-25.042
		c0.058,0.787,0.163,1.716,0.307,2.566L226.235,368.307z M307.926,285.594c12.139-0.525,23.634-1.016,32.413-1.318l4.166,34.218
		c-0.741,1.813-1.407,3.723-1.911,5.729L307.926,285.594z M340.615,272.385l0.466-0.489l5.177,42.895
		c-0.148,0.267-0.247,0.529-0.377,0.777L340.615,272.385z M350.609,311.083c3.044-3.791,6.809-6.527,11.051-7.713
		c1.327-0.389,2.697-0.6,4.087-0.648c13.526-0.473,25.199,14.896,25.998,34.351c0.685,17.291-7.336,32.217-19.07,35.496
		c-1.34,0.392-2.711,0.594-4.085,0.652c-6.531,0.241-12.787-3.177-17.691-9.6c-3.703-4.846-6.295-10.968-7.522-17.719
		c-0.021-0.071-0.04-0.167-0.057-0.247c-0.403-2.203-0.638-4.465-0.725-6.795c-0.077-1.46-0.022-2.926,0.024-4.37l0.101-1.168
		c0.141-2.477,0.501-4.915,1.02-7.205l0.133-0.415l-0.047-0.014c0.502-2.179,1.143-4.239,1.958-6.195l0.268-0.603
		c1.169-2.736,2.65-5.276,4.366-7.466l0.197-0.277L350.609,311.083z M348.988,310.609c-0.599,0.79-1.19,1.62-1.707,2.52
		l-5.076-42.342l2.002-2.024L348.988,310.609z M310.443,262.703l3.753-2.597l48.747,0.352l-2.45,2.521L310.443,262.703z
		 M366.15,262.929l-3.564-0.028l2.456-2.478l2.498,0.013l0.001,1.419L366.15,262.929z M367.54,258.719l-0.846,0.017l0.857-0.862
		L367.54,258.719z M367.587,255.709l-2.99,3.049l-47.968-0.328l4.849-3.34l46.132,0.421L367.587,255.709z M367.627,253.799
		l-43.688-0.408l4.834-3.319l38.868,0.472L367.627,253.799z M331.184,248.382l4.776-3.295l31.71,0.451l0.001,3.28L331.184,248.382z
		 M367.72,243.843l-29.315-0.425l4.719-3.242l24.602,0.389L367.72,243.843z M367.78,238.843l-22.251-0.338l4.743-3.273l17.509,0.329
		L367.78,238.843z M367.823,233.881l-15.181-0.286l4.658-3.226l10.536,0.241L367.823,233.881z M367.848,228.871l-8.138-0.154
		l4.622-3.191l3.552,0.101L367.848,228.871z M366.721,223.847l1.184-0.792l0.012,0.855L366.721,223.847z M363.804,223.815
		l-10.35-0.248l3.898-3.172l10.567,0.258l0.006,0.329L363.804,223.815z M367.952,218.921l-8.59-0.204l3.867-3.182l4.76,0.129
		L367.952,218.921z M368.012,213.95l-2.78-0.063l2.79-2.309L368.012,213.95z M368.081,209.017l-36.097-1.095c0,0,0,0,0-0.001
		l-0.027,0l-0.122-0.004l1.874-3.372l34.385,1.209L368.081,209.017z M369.218,257.035l4.312,0.067l-2.386,1.883l-1.929-0.017
		L369.218,257.035z M468.906,263.301l-97.341-0.474l-2.344-0.38l2.727-2.129l41.503,0.626l63.792,0.566
		C474.426,262.127,471.665,262.7,468.906,263.301z M482.912,260.293l-69.462-1.085l-39.68-0.353l2.337-1.85l38.419,0.754
		l75.587,0.98C487.701,259.258,485.324,259.777,482.912,260.293z M495.393,257.583l-80.837-1.536l-36.628-0.499l2.313-1.761
		l35.39,0.81l86.96,1.429C500.192,256.536,497.793,257.068,495.393,257.583z M507.416,254.958l-91.778-2.109l-33.55-0.545
		l2.25-1.779l32.352,0.854l91.893,1.896c2.048,0.049,4.047,0.071,6.083,0.102C512.27,253.89,509.853,254.452,507.416,254.958z
		 M518.943,252.434c-3.428-0.111-6.903-0.255-10.33-0.31l-91.877-2.479l-30.541-0.614l2.204-1.724l29.388,0.896l91.892,2.255
		c5.58,0.132,11.18,0.212,16.718,0.364C523.958,251.35,521.487,251.876,518.943,252.434z M530.123,249.974
		c-6.827-0.246-13.63-0.487-20.432-0.688l-91.853-2.786l-27.559-0.674l2.171-1.728l26.417,0.918l91.855,2.581
		c9.049,0.269,18.089,0.467,27.106,0.685C535.303,248.848,532.754,249.407,530.123,249.974z M540.921,247.576
		c-10.045-0.378-20.097-0.797-30.159-1.113l-91.863-3.156l-24.572-0.711l2.153-1.664l23.465,0.879l91.875,2.967
		c12.347,0.411,24.67,0.726,37.061,1.077C546.331,246.408,543.678,246.969,540.921,247.576z M551.469,245.264
		c-13.189-0.575-26.412-1.18-39.647-1.64l-91.818-3.5l-21.644-0.687l2.093-1.662l20.59,0.846l91.847,3.316
		c15.523,0.589,31.129,1.037,46.667,1.54C557.028,244.012,554.33,244.611,551.469,245.264z M561.635,242.984
		c-16.224-0.769-32.484-1.55-48.703-2.203l-91.835-3.859l-18.741-0.668l2.044-1.616l17.723,0.827l91.827,3.665
		c17.092,0.698,34.187,1.258,51.291,1.858c0.17,0.405,0.315,0.786,0.409,1.135C564.376,242.378,563.052,242.679,561.635,242.984z
		 M567.259,241.519c-0.116-0.372-0.275-0.818-0.447-1.28l-0.831-20.904c0.481-0.095,0.944-0.19,1.421-0.246l0.645,22.268
		C567.753,241.393,567.506,241.448,567.259,241.519z M570.406,240.816l-0.878-22.136c0.481-0.095,0.958-0.196,1.411-0.273
		l0.63,22.142C571.185,240.649,570.792,240.727,570.406,240.816z M573.937,240.012l-0.88-21.996
		c0.497-0.099,0.961-0.175,1.463-0.263l0.607,21.975C574.762,239.822,574.342,239.91,573.937,240.012z M577.47,239.186l-0.86-21.844
		c0.487-0.085,0.998-0.149,1.457-0.246l0.596,21.813C578.31,238.986,577.931,239.077,577.47,239.186z M581.015,238.163
		l-0.838-21.458c0.433-0.105,0.974-0.162,1.438-0.267l0.595,21.147C581.813,237.83,581.4,237.981,581.015,238.163z M584.465,235.555
		l-0.787-19.513c0.527-0.086,1.016-0.169,1.509-0.286l0.473,17.921C585.313,234.356,584.922,234.974,584.465,235.555z
		 M587.763,228.04l-0.497-12.649c0.323-0.064,0.687-0.123,1.032-0.188c0.04,0.612,0.13,1.289,0.176,1.831
		C588.816,220.677,588.551,224.575,587.763,228.04z M622.419,200.59c-11.056,1.934-22.482,3.906-33.383,5.787
		c-0.632-4.743-1.415-10.17-2.316-15.511L622.419,200.59z M587.336,206.702c-0.114,0.018-0.231,0.04-0.372,0.066l-0.149-4.154
		C586.992,204.025,587.185,205.357,587.336,206.702z M585.01,207.094c-0.529,0.099-1.062,0.161-1.591,0.285l-0.553-14.813
		c-0.046-0.915-0.102-1.828-0.16-2.745l1.851,0.5c0.004,0.833,0.018,1.711,0.058,2.567L585.01,207.094z M584.578,188.132
		c-0.008,0.142-0.012,0.269-0.024,0.393l-1.895-0.503c-0.172-3.844-0.382-7.646-0.585-11.452
		C582.94,179.869,583.794,183.87,584.578,188.132z M628.815,201.17c7.028-1.214,13.781-2.397,19.959-3.469
		c15.498-2.658,23.964-3.704,28.581-3.977l-124.249,22.478c-0.481-0.571-0.955-1.069-1.557-1.376
		c-0.375-0.177-0.739-0.351-1.078-0.525C570.329,211.393,601.314,205.951,628.815,201.17z M581.422,207.695
		c-0.503,0.101-0.999,0.195-1.523,0.256l-0.619-15.622c-0.038-1.167-0.115-2.314-0.162-3.495l1.835,0.48
		c0.032,1.124,0.048,2.229,0.064,3.322L581.422,207.695z M579.518,168.988c0.252,0.657,0.513,1.319,0.806,1.999
		c0.145,0.351,0.307,0.77,0.422,1.19c0.067,5.122,0.147,10.249,0.25,15.402l-1.933-0.552c-0.34-7.214-0.716-14.432-1.108-21.66
		C578.488,166.505,579.007,167.699,579.518,168.988z M577.885,208.299c-0.501,0.106-1.018,0.196-1.535,0.245l-0.643-16.483
		c-0.058-1.412-0.136-2.803-0.198-4.198l1.885,0.492c0.022,1.345,0.03,2.709,0.058,4.039L577.885,208.299z M577.054,163.606
		c0.118,7.676,0.21,15.33,0.355,22.964l-1.919-0.518c-0.419-8.447-0.88-16.915-1.333-25.362
		C575.314,161.343,576.256,162.318,577.054,163.606z M573.861,192.115l0.471,16.794c-0.515,0.077-1.028,0.153-1.518,0.266
		l-0.689-17.388c-0.074-1.633-0.174-3.261-0.248-4.896l1.915,0.513C573.832,188.992,573.815,190.561,573.861,192.115z
		 M573.227,160.138c0.06,0.023,0.126,0.097,0.216,0.118c0.096,8.456,0.237,16.9,0.38,25.362l-1.976-0.546
		c-0.407-8.4-0.848-16.805-1.293-25.221C571.533,159.803,572.427,159.892,573.227,160.138z M570.774,209.512
		c-0.504,0.094-1.031,0.156-1.499,0.237l-0.722-18.208c-0.096-1.885-0.206-3.768-0.294-5.643l1.931,0.511
		c0.064,1.809,0.036,3.627,0.105,5.466L570.774,209.512z M569.836,159.917c0.122,8.244,0.243,16.491,0.395,24.731l-2.02-0.571
		c-0.375-7.832-0.773-15.705-1.176-23.536C568.063,160.201,568.987,160.003,569.836,159.917z M567.237,210.083
		c-0.513,0.091-1.04,0.177-1.541,0.242l-0.718-19.045c-0.072-2.128-0.226-4.242-0.336-6.376l1.936,0.546
		c0.076,2.042,0.069,4.096,0.147,6.153L567.237,210.083z M566.294,160.76c0.086,7.632,0.22,15.264,0.357,22.904l-2.02-0.544
		c-0.384-7.1-0.751-14.156-1.1-21.254C564.488,161.417,565.456,161.054,566.294,160.76z M563.148,191.346l0.521,19.308
		c-0.509,0.09-0.988,0.189-1.507,0.283l-0.781-19.915c-0.102-2.355-0.238-4.738-0.334-7.113l2.002,0.569
		C563.078,186.766,563.09,189.046,563.148,191.346z M562.747,162.248c0.084,6.819,0.197,13.63,0.298,20.449l-2.06-0.545
		c-0.303-6.17-0.603-12.335-0.96-18.538C560.982,163.108,561.864,162.653,562.747,162.248z M560.116,211.247
		c-0.513,0.077-0.986,0.163-1.499,0.224l-0.802-20.691c-0.112-2.608-0.285-5.227-0.401-7.812l2.026,0.537
		c0.038,2.544,0.042,5.061,0.102,7.586L560.116,211.247z M559.188,164.09c0.072,5.887,0.17,11.756,0.256,17.645l-2.07-0.59
		c-0.258-5.155-0.537-10.352-0.794-15.51C557.471,165.073,558.379,164.578,559.188,164.09z M556.56,211.817
		c-0.503,0.068-0.996,0.156-1.489,0.231l-0.837-21.564c-0.112-2.813-0.271-5.653-0.437-8.522l2.055,0.579
		c0.046,2.754,0.066,5.54,0.118,8.285L556.56,211.817z M555.65,166.205c0.065,4.877,0.138,9.698,0.231,14.543l-2.112-0.571
		c-0.225-4.074-0.42-8.165-0.647-12.271C553.963,167.305,554.818,166.739,555.65,166.205z M553.017,212.369
		c-0.495,0.058-1.002,0.123-1.495,0.224l-0.848-22.346c-0.142-3.086-0.325-6.157-0.47-9.23l2.048,0.552
		c0.036,2.992,0.074,5.991,0.13,8.98L553.017,212.369z M552.097,168.608c0.086,3.743,0.142,7.459,0.18,11.157l-2.124-0.551
		c-0.162-2.911-0.29-5.832-0.471-8.761C550.499,169.832,551.308,169.182,552.097,168.608z M549.459,212.901
		c-0.501,0.059-0.994,0.142-1.473,0.191l-0.901-23.114c-0.153-3.312-0.313-6.632-0.517-9.95l2.097,0.565
		c0.044,3.256,0.082,6.472,0.16,9.726L549.459,212.901z M548.589,171.315c0.03,2.5,0.07,4.996,0.124,7.513l-2.192-0.61
		c-0.084-1.62-0.147-3.285-0.237-4.96C547.038,172.597,547.8,171.915,548.589,171.315z M545.886,212.903
		c-0.449-0.141-0.874-0.279-1.349-0.416c-0.034-0.031-0.098-0.053-0.124-0.06l-0.928-22.7c-0.132-3.579-0.331-7.117-0.525-10.687
		l2.124,0.582c0.042,3.474,0.088,6.954,0.182,10.404L545.886,212.903z M545.065,174.307c0.01,1.178,0.02,2.377,0.05,3.545
		l-2.21-0.605c-0.022-0.327-0.028-0.623-0.042-0.952C543.591,175.639,544.291,174.952,545.065,174.307z M540.574,178.42l0.92,0.231
		c0.052,3.719,0.088,7.431,0.184,11.122l0.607,22.05c-0.467-0.106-0.966-0.232-1.517-0.358l-0.842-21.984
		c-0.145-3.314-0.315-6.623-0.504-9.934C539.819,179.176,540.201,178.798,540.574,178.42z M537.959,181.015
		c0.024,2.831,0.05,5.648,0.124,8.507l0.597,21.458c-0.519-0.099-0.966-0.22-1.507-0.302l-0.827-21.486
		c-0.08-2.087-0.229-4.116-0.325-6.201C536.665,182.329,537.277,181.672,537.959,181.015z M534.424,184.667
		c0.056,1.549,0.03,3.073,0.08,4.595l0.589,20.939c-0.499-0.099-0.991-0.197-1.495-0.3l-0.823-20.95
		c-0.046-0.793-0.086-1.547-0.124-2.332C533.234,185.98,533.842,185.322,534.424,184.667z M530.91,188.552
		c0.016,0.161-0.01,0.307,0.006,0.45l0.565,20.513c-0.487-0.125-1-0.216-1.499-0.345l-0.735-18.711
		C529.798,189.823,530.35,189.189,530.91,188.552z M527.452,192.594l0.443,16.19c-0.499-0.091-0.972-0.188-1.524-0.305
		l-0.527-13.998C526.348,193.869,526.909,193.22,527.452,192.594z M524,196.773l0.321,11.331c-0.541-0.1-1.018-0.189-1.533-0.298
		l-0.369-9.073C522.916,198.117,523.445,197.434,524,196.773z M520.542,201.182l0.181,6.249c-0.128-0.024-0.24-0.091-0.351-0.087
		c-0.411-0.081-0.779-0.151-1.201-0.201l-0.144-3.993C519.489,202.529,519.99,201.854,520.542,201.182z M517.081,205.766
		l0.022,0.935c-0.204-0.008-0.382-0.056-0.631-0.102C516.676,206.354,516.852,206.121,517.081,205.766z M510.426,207.188
		c2.785,0.584,6.069,1.21,9.631,1.885c9.419,1.813,20.113,3.879,23.998,5.164c0.623,0.2,1.22,0.393,1.774,0.572
		c2.174,0.689,3.815,1.201,5.075,2.016l-113.423-8.157l13.372-10.495C470.68,201.115,493.389,204.59,510.426,207.188z
		 M450.478,196.439c-7.025-1.035-13.796-2.037-19.839-2.917l21.712-22.097c8.42,1.215,17.725,2.163,26.981,2.351L450.478,196.439z
		 M558.359,113.543l-4.423,1.342l-73.119,57.497c-2.643-0.724-12.519-3.296-24.689-4.96l16.961-17.275l28.362-19.56l-5.317,1.615
		l-16.726,11.525l9.083-9.25l-3.375,1.022l70.683-71.921l3.306-0.934l-70.608,71.851l7.638-2.294L667.979,13.805l5.084-1.454
		L501.45,130.586l52.486-15.702L681.898,14.295l4.282-1.193L558.359,113.543z M678.727,6.476c-1.635,0.505-3.365,1.026-5.137,1.601
		L3.175,234.142l0.216,0.806l-0.233-0.801c-0.504,0.134-1.041-0.151-1.221-0.623c-0.075-0.26-0.016-0.518,0.041-0.744
		c0.141-0.233,0.345-0.4,0.618-0.509l63.101-21.564l0.002,0.008l0.051-0.02l110.084-37.58l0.019,0.018l0.038-0.036L651.496,10.7
		c21.077-5.642,31.227-6.742,34.92-6.774C684.637,4.642,681.55,5.589,678.727,6.476z"/>
    <path d="M241.779,231.515l0.204,0.01c-0.083-9.434-2.978-16.052-3.186-16.524c-3.164-7.205-8.294-12.225-14.208-12.832
		c-1.61-0.147-3.171-0.011-4.746,0.418c-8.531,2.413-15.406,13.177-16.785,26.311c-0.011,0.102-0.032,0.503-0.042,0.603
		c0,0.005,0,0.004,0,0.008c-0.227,1.568-0.108,6.931-0.1,7.035c0.912,12.542,7.274,22.532,15.94,23.565
		c2.173,0.252,4.339,0.087,6.459-0.51c9.176-2.588,15.87-12.667,16.643-25.13c0.059-0.964,0.048-1.957,0.024-2.943L241.779,231.515z
		 M240.611,234.47c-0.73,11.951-7.061,21.573-15.759,24.027c-1.978,0.543-4.003,0.674-6.017,0.465
		c-5.081-0.614-9.281-4.607-11.959-10.425c2.62,5.072,6.481,8.538,11.108,9.254c2.137,0.279,4.238,0.152,6.314-0.44
		c8.279-2.321,14.411-11.389,15.2-22.588c0.071-0.778,0.084-1.53,0.086-2.291c-0.035-1.467-0.334-9.903-2.657-14.999l0.013-0.007
		c-0.004,0.002-0.008,0.004-0.013,0.005c-1.31-3.23-2.967-6.057-4.977-8.227l-0.789,0.885c1.788,1.884,3.245,4.369,4.425,7.17
		c0.007,0.01,0.011,0.015,0.011,0.015s0.068,0.156,0.174,0.424c0.021,0.051,0.043,0.101,0.064,0.153
		c-0.001,0-0.002,0.001-0.003,0.001c0.659,1.697,2.488,7.035,2.549,13.915c0.004,0,0.008-0.001,0.013-0.001
		c-0.016,0.97,0.006,1.9-0.076,2.861c-0.788,10.696-6.563,19.345-14.339,21.53c-1.902,0.55-3.846,0.662-5.808,0.362
		c-4.585-0.648-8.347-4.37-10.744-9.709c2.282,4.574,5.72,7.758,9.852,8.521c2.065,0.355,4.15,0.275,6.168-0.287
		c7.466-2.085,12.865-9.979,13.762-20.105c0.084-0.871,0.083-1.719,0.085-2.58c-0.001-0.09-0.113-8.723-2.783-14.693
		c-0.053-0.12-0.105-0.243-0.159-0.362c-0.011-0.024-0.022-0.049-0.032-0.072c-1.105-2.399-2.447-4.528-4.025-6.177l-0.788,0.861
		c1.573,1.671,2.906,3.864,3.984,6.315h0.013c0,0,0.072,0.156,0.184,0.427c0.007,0.017,0.016,0.032,0.023,0.049
		c-0.001,0-0.001,0.001-0.002,0.001c0.601,1.471,2.341,6.331,2.399,13.197c0.003,0,0.005,0,0.008-0.001
		c0,0.095-0.004,0.19-0.004,0.285c0,0.06,0.003,0.117,0.003,0.178l-0.005,0.001c-0.006,0.814-0.026,1.629-0.095,2.423
		c-0.82,9.642-5.892,17.108-12.893,19.055c-1.854,0.541-3.732,0.633-5.624,0.296c-4.119-0.726-7.461-4.159-9.582-9.029
		c2.034,4.112,5.037,7.035,8.663,7.826c1.984,0.449,4.037,0.393,5.986-0.152c6.541-1.844,11.376-8.785,12.334-17.675
		c0.105-0.98,0.124-1.926,0.122-2.87c-0.017-1.437-0.231-8.124-2.582-13.68c-1.004-2.228-2.26-4.232-3.766-5.743l-0.812,0.905
		c1.302,1.323,2.386,3.078,3.317,5.051l0.014-0.005c0,0,2.519,4.469,2.635,13.288c0.003,0,0.007-0.001,0.01-0.001
		c-0.002,0.198-0.003,0.396-0.005,0.595c0,0.169,0.006,0.327,0.004,0.499l-0.013,0.001c-0.012,0.604-0.04,1.22-0.132,1.869
		c-1.178,8.318-5.376,14.892-11.437,16.609c-1.765,0.455-3.617,0.531-5.415,0.142c-3.649-0.8-6.597-3.956-8.368-8.346
		c1.704,3.64,4.225,6.282,7.381,7.13c1.947,0.514,3.919,0.507,5.849-0.028c5.605-1.586,9.901-7.529,10.891-15.173
		c0.148-1.072,0.181-2.102,0.188-3.124c0.007-2.258-0.192-8.021-2.179-12.238c-0.007,0.003-0.014,0.006-0.02,0.009
		c-0.95-2.101-2.125-3.965-3.545-5.369l-0.836,0.923c1.095,1.116,2.03,2.533,2.829,4.14l0.014-0.004c0,0,2.269,3.766,2.506,12.533
		c0.001,0,0.002,0,0.003,0c0,0.021-0.001,0.041-0.001,0.062c0.004,0.157,0.012,0.302,0.015,0.462l-0.026,0.005
		c-0.014,0.8-0.036,1.605-0.132,2.424c-0.929,7.162-4.874,12.745-10.053,14.169c-1.705,0.496-3.436,0.505-5.181,0.039
		c-2.677-0.729-4.844-2.916-6.412-5.905c1.387,2.268,3.206,3.959,5.355,4.688c1.92,0.632,3.799,0.661,5.671,0.138
		c4.814-1.336,8.472-6.213,9.488-12.728c0.144-0.924,0.193-1.818,0.235-2.725c-0.008-0.853-0.138-7.654-2.151-11.977
		c-0.003,0.001-0.005,0.002-0.008,0.003c-0.815-1.714-1.805-3.263-3.035-4.378l-0.81,0.904c0.808,0.777,1.528,1.749,2.154,2.846
		l0.002-0.001c0,0,2.778,4.298,2.635,12.117c0.004,0,0.008-0.001,0.013-0.001c-0.03,0.982-0.038,2.011-0.203,3.002
		c-0.961,6.022-4.281,10.543-8.635,11.792c-1.628,0.455-3.286,0.395-4.946-0.169c-2.235-0.714-4.026-2.648-5.339-5.217
		c1.117,1.85,2.49,3.272,4.206,3.963c1.789,0.772,3.703,0.917,5.517,0.392c3.93-1.094,7.018-5.044,8.061-10.337
		c0.184-0.892,0.265-1.795,0.305-2.686c0.014-0.474,0.157-7.236-2.511-12.18c-0.593-1.011-1.269-1.916-2.069-2.631l-0.815,0.867
		c0.746,0.665,1.367,1.551,1.928,2.521l0.005-0.002c0,0,0.048,0.082,0.126,0.23c0.057,0.102,0.117,0.2,0.173,0.304
		c-0.006,0.003-0.011,0.005-0.017,0.008c0.639,1.317,2.135,5.008,1.985,10.314c0.006,0,0.011-0.001,0.017-0.002
		c-0.009,0.135-0.017,0.271-0.025,0.406c0,0.002,0,0.003,0,0.005l0,0c-0.053,0.862-0.101,1.723-0.28,2.589
		c-0.972,4.851-3.731,8.464-7.208,9.42c-1.56,0.454-3.184,0.332-4.714-0.334c-1.557-0.665-2.809-1.978-3.812-3.726
		c0.725,1.036,1.602,1.894,2.602,2.435c1.7,0.932,3.559,1.182,5.336,0.673c3.116-0.861,5.62-3.857,6.656-7.993
		c0.249-0.956,0.352-1.924,0.435-2.897c0.046-0.722,0.279-6.026-2.302-11.045c-0.488-0.79-1.042-1.497-1.666-2.019l-0.848,0.887
		c0.556,0.45,1.046,1.047,1.498,1.693l0.003-0.001c0,0,0.067,0.091,0.171,0.253c0.038,0.057,0.079,0.112,0.117,0.17
		c-0.003,0.001-0.007,0.003-0.01,0.004c0.637,1.074,2.13,4.232,1.845,9.698c0.007,0,0.012-0.001,0.019,0
		c-0.013,0.148-0.026,0.298-0.039,0.447c0,0.001,0,0.002,0,0.003h0c-0.072,0.83-0.152,1.675-0.376,2.51
		c-0.938,3.711-3.116,6.391-5.836,7.123c-1.474,0.434-2.998,0.222-4.423-0.562c-0.969-0.548-1.813-1.416-2.492-2.489
		c0.35,0.423,0.726,0.799,1.151,1.109c1.595,1.183,3.44,1.571,5.184,1.096c2.329-0.663,4.248-2.748,5.253-5.719
		c0.342-1.009,0.535-1.996,0.668-2.994c0.049-0.651,0.42-6.678-2.207-10.251c-0.375-0.502-0.787-0.959-1.225-1.319l-0.87,0.916
		c0.055,0.024,0.069,0.026,0.096,0.027c0.378,0.3,0.657,0.689,0.929,1.073l0.003-0.002c0,0,2.661,3.212,2.033,9.227
		c0.004-0.001,0.007-0.001,0.011-0.002c-0.016,0.138-0.035,0.278-0.052,0.417c-0.002,0.017-0.003,0.033-0.005,0.05l-0.001,0
		c-0.105,0.829-0.241,1.662-0.502,2.446c-0.891,2.609-2.518,4.412-4.463,4.961c-1.402,0.386-2.842,0.091-4.128-0.885
		c-0.238-0.171-0.358-0.476-0.552-0.69c1.257,0.918,2.699,1.245,4.089,0.85c1.596-0.433,2.946-1.709,3.846-3.552
		c0.539-1.088,0.78-2.235,0.966-3.423c0.205-1.492,0.513-5.756-1.97-8.995c-0.282-0.306-0.602-0.562-0.901-0.784l-0.824,0.898
		c0.128,0.09,0.257,0.193,0.384,0.303c0.018,0.014,0.091,0.077,0.205,0.191c0.03,0.029,0.062,0.055,0.09,0.084
		c-0.002,0.001-0.004,0.002-0.006,0.003c0.737,0.787,2.51,3.287,1.767,8.386c0.005-0.001,0.01-0.001,0.015-0.002
		c-0.018,0.115-0.041,0.226-0.061,0.34c-0.005,0.034-0.008,0.063-0.013,0.097l-0.004,0c-0.152,0.831-0.358,1.619-0.732,2.351
		c-0.749,1.549-1.838,2.584-3.08,2.935c-1.044,0.294-2.128,0.062-3.051-0.652c0.778,0.352,1.621,0.479,2.493,0.231
		c0.863-0.245,1.711-0.827,2.349-1.662c0.725-0.913,1.18-2.081,1.471-3.294c0.128-0.766,0.801-5.596-1.993-8.578
		c-0.067-0.073-0.135-0.15-0.182-0.2c-0.056-0.059-1.246,1.501-3.261,5.209l-0.005,0.04c0.787-0.096,1.301,0.619,1.301,0.619
		c0.746,1.026,0.675,1.946,0.676,2.721c0.002,0.777-0.402,1.542-0.402,1.542c-0.789,1.541-2.013,1.397-2.013,1.397
		c-1.142,0.004-1.555-1.315-1.555-1.315c-0.686-2.169,0.56-3.978,0.56-3.977c0.707-0.978,1.365-0.984,1.365-0.984
		c0.017-0.003,0.033,0,0.05-0.003c0.008-0.015,0.015-0.027,0.023-0.041l0.679-5.866c-0.102,0.014-0.206-0.009-0.311,0.012
		c0.098-0.075,0.239-0.154,0.36-0.223l0.155-1.32c-0.095,0.023-0.201,0.019-0.307,0.032c-0.391,0.11-0.797,0.266-1.174,0.526
		c0.49-0.43,0.995-0.748,1.545-1.004l0.179-1.381c-1.015,0.273-1.93,0.914-2.769,1.679c0.823-1.033,1.827-1.73,2.829-2.215
		l0.214-1.414c-1.326,0.431-2.558,1.296-3.59,2.458c1.04-1.456,2.298-2.561,3.691-3.201l0.144-1.318
		c-1.605,0.613-3.129,1.655-4.385,3.202c1.272-1.843,2.796-3.21,4.519-4.031l0.171-1.395c-1.897,0.733-3.68,2.103-5.17,4.05
		c1.502-2.27,3.319-3.92,5.269-4.852l0.18-1.388c-2.293,0.918-4.414,2.651-6.143,5.118c1.759-2.779,3.885-4.821,6.263-5.961
		l0.194-1.41c-2.56,1.055-4.891,2.994-6.802,5.695c1.939-3.022,4.314-5.288,6.918-6.571l0.191-1.376
		c-2.888,1.17-5.512,3.394-7.617,6.472c2.123-3.411,4.78-5.953,7.723-7.33l0.177-1.419c-3.286,1.361-6.267,4.006-8.615,7.659
		c2.818-4.798,6.612-8.203,10.834-9.4c1.425-0.381,2.846-0.527,4.279-0.401c5.868,0.602,10.853,5.901,13.77,13.357l0.001-0.001
		c0,0,0.011,0.029,0.02,0.053c0.016,0.041,0.034,0.08,0.05,0.122c-0.002,0.001-0.003,0.001-0.005,0.002
		c0.37,1.025,2.366,6.927,2.508,14.694c0.005,0,0.01-0.001,0.015-0.001C240.658,232.616,240.675,233.507,240.611,234.47z
		 M215.751,237.386c0.14-0.039,0.259-0.081,0.372-0.167c1.344-0.68,2.254-2.07,2.749-3.696c0.002,0,0,0,0.014,0
		c-0.246,0.958-0.616,1.874-1.196,2.604c-0.508,0.633-1.113,1.062-1.741,1.255C215.882,237.403,215.816,237.392,215.751,237.386z"/>
</g>
</svg>
