<?xml version="1.0" encoding="utf-8"?>
<!-- Generator: Adobe Illustrator 17.0.0, SVG Export Plug-In . SVG Version: 6.00 Build 0)  -->
<!DOCTYPE svg PUBLIC "-//W3C//DTD SVG 1.1//EN" "http://www.w3.org/Graphics/SVG/1.1/DTD/svg11.dtd">
<svg version="1.1" xmlns="http://www.w3.org/2000/svg" x="0px" y="0px"
     width="218px"
     height="55.42px" viewBox="0 0 218 55.42" enable-background="new 0 0 218 55.42" xml:space="preserve">
<g id="图层_1">
	<path d="M0.004,39.378c0,0.446-0.026,0.797,0.089,1.212c2.358,9.905,13.594,16.157,26.114,14.588
		c14.284-1.79,27.18-5.003,45.067-9.97c9.536-2.648,28.081-9.924,30.793-11.462c0,0.007,0.106-0.056,0.106-0.048
		c0.261-0.188,0.409-0.297,0.748-0.457c0.357-0.169,0.512-0.335,0.882-0.526c0.319-0.199,0.601-0.316,0.875-0.4
		c0.303-0.093,0.788,0.162,1.483,0.213c6.163,0.487,13.141-4.136,18.909-4.159c2.469-0.305,22.718-1.619,22.718-1.619
		c13.208-0.746,29.064-1.454,38.962-1.56c1.964-0.006,3.845-0.04,5.639-0.045c7.445-0.052,13.578-0.111,17.98-0.723
		c0.138-0.019,3.573-0.261,5.988-1.988c0.808-0.582,1.491-1.359,1.629-2.562c0.042-0.369,0.015-2.078-0.439-3.113
		c-0.526-1.334-1.37-3.269-3.351-5.662c-1.353-2.023-5.865-5.111-7.46-5.977c-2.203-1.274-4.845-2.336-7.348-3.18
		c-1.421-0.479-8.745-2.14-12.822-1.899c-1.662-0.196-8.437,0.341-9.561,0.474c-3.146,0.371-9.199,1.696-12.647,2.671
		c-5.236,1.447-10.908,3.424-17.317,5.982c-0.734,0.267-1.435,0.579-2.129,0.835L120.335,21c-0.789,0.391-3.916,1.89-4.403,2.182
		l-0.645,0.356c-0.001,0.001-2.164,0.915-2.663,0.746c-0.085-0.029-0.853-0.539-1.137-0.656c-2.036-1.176-4.377-0.989-5.055-0.802
		c-1.199,0.332-2.275,0.916-2.68,1.254c-0.831,0.696-1.324,1.711-1.338,1.774c-0.044,0.186-0.181,0.531-0.189,0.654
		c-4.413,2.428-25.302,3.867-33.815,4.304c-11.743,0.603-27.824,0.282-37.338-0.282c0.007-0.002,0.016-0.005,0.024-0.007
		c-0.56-0.013-1.303-0.026-1.948-0.131c-0.778-0.035-0.778-0.035-1.306-0.085c-0.633-0.059-1.805-0.145-2.545-0.254
		c-4.722-0.443-7.939-0.882-12.458-0.543C9.852,29.735-0.234,30.579,0.004,39.378 M24.312,52.881
		c-5.824,0.517-10.87-0.323-14.738-2.31c5.978,0.428,12.313,0.364,18.589-0.311c0.026,0.01,0.059,0.004,0.078-0.002
		c0.318-0.1,0.532-0.42,0.489-0.735c-0.033-0.372-0.357-0.645-0.711-0.592c-6.994,0.725-14.153,0.826-20.659,0.228
		c-0.729-0.521-1.34-1.148-1.915-1.769c7.884,0.449,21.055,0.239,35.077-1.862c0.022,0.003,0.075,0.009,0.1,0.007
		c0.313-0.107,0.532-0.388,0.476-0.75c-0.05-0.39-0.373-0.625-0.763-0.576c-14.659,2.194-28.411,2.289-36.033,1.733
		c-0.411-0.581-0.827-1.208-1.136-1.88c8.745,0.852,35.167,0.56,58.306-5.022l0.005-0.001c0.37-0.102,0.573-0.445,0.501-0.821
		c-0.085-0.362-0.437-0.576-0.842-0.503c-23.562,5.712-50.602,5.858-58.481,4.954c-0.233-0.6-0.49-1.173-0.653-1.841
		C1.976,40.66,2,40.512,1.972,40.346c5.944,0.286,18.407,0.426,29.488-0.591c0.022-0.007,0.065-0.008,0.082-0.024
		c0.331-0.081,0.547-0.368,0.498-0.682c-0.032-0.372-0.352-0.69-0.736-0.631c-11.083,1.007-23.591,0.891-29.417,0.596
		c-0.123-3.271,1.759-5.484,5.927-6.653c3.308-0.934,8.711-0.788,13.936-0.195c11,1.25,31.014,1.543,43.171,0.814
		c12.299-0.737,30.204-2.606,37.454-4.794c0.007,0.078,0.782,2.123,1.211,2.671c0.023,0.028,0.027,0.043,0.045,0.064
		c-5.744,3.553-18.25,8.608-33.422,12.936C50.237,49.556,29.319,52.437,24.312,52.881z M126.565,26.469
		c-1.307,0.139-2.482,0.311-3.549,0.451c0.882-0.334,1.747-0.699,2.622-1.111l1.112,0.631
		C126.727,26.444,126.617,26.464,126.565,26.469z M131.479,26.047l-2.687-1.559c0.721-0.322,1.548-0.668,2.373-0.984l3.955,2.252
		C133.797,25.835,132.582,25.929,131.479,26.047z M139.692,25.414l-5.569-3.164c1.071-0.433,2.175-0.913,3.346-1.35l6.844,4.219
		C142.703,25.23,141.2,25.313,139.692,25.414z M148.457,24.864l-8.246-5.09c0.946-0.356,1.887-0.773,2.93-1.171
		c0.064,0.168,0.156,0.317,0.305,0.439l9.32,5.587C151.305,24.711,149.858,24.776,148.457,24.864z M216.177,19.834
		c-0.047,0.338-0.149,1.374-2.969,2.161c-2.875,0.806-7.532,1.055-13.33,1.163L185.5,14.507c-0.37-0.18-0.801-0.09-1.01,0.289
		c-0.221,0.338-0.131,0.788,0.265,0.999l12.322,7.398c-1.496,0.034-3.022,0.061-4.632,0.081c-0.417-0.024-0.812-0.017-1.231-0.014
		l-17.796-10.827c-0.383-0.215-0.887-0.063-1.093,0.28c-0.259,0.398-0.148,0.903,0.263,1.145l15.554,9.426
		c-0.479,0.016-0.903,0.01-1.366,0.016c-1.291,0.01-2.725,0.054-4.172,0.094l-17.301-10.358c-0.43-0.254-1.001-0.102-1.218,0.324
		c-0.271,0.415-0.145,0.961,0.319,1.22l14.869,8.886c-1.775,0.035-3.601,0.09-5.475,0.159l-15.69-9.109
		c-0.435-0.276-1.05-0.107-1.294,0.357c-0.297,0.457-0.117,1.05,0.358,1.317l12.997,7.584c-1.625,0.078-3.276,0.124-4.913,0.201
		l-13.099-7.826c-0.524-0.279-1.16-0.124-1.448,0.369c-0.297,0.491-0.118,1.131,0.387,1.435l10.346,6.208
		c-1.576,0.051-3.139,0.15-4.698,0.208l-11.222-6.732c0.081-0.054,0.17-0.079,0.257-0.123c21.108-8.252,42.737-14.648,57.974-5.288
		c0.142,0.092,0.35,0.162,0.558,0.103c0.131-0.042,0.271-0.147,0.356-0.303c0.214-0.316,0.112-0.763-0.197-0.929
		c-15.741-9.702-37.782-3.25-59.175,5.166c-11.583,4.543-17.978,7.265-24.736,10.153l-5.745,3.312
		c-0.044,0.014-0.142,0.049-0.173,0.064c-0.738,0.183-1.397,0.371-2.015,0.523c-0.859,0.255-1.669,0.465-2.53,0.619
		c-1.61,0.37-3.342-0.035-4.504-0.918c-0.473-0.417-0.876-0.88-1.083-1.516c-0.236-0.445-0.052-1.482-0.018-1.631
		c0.466-1.314,1.466-1.939,2.299-2.19c1.635-0.437,3.65,0.005,4.941,1.057l0.244,0.153c0.231,0.08,0.931,0.243,2.212-0.118
		c0.746-0.204,3.869-2.324,4.752-2.781c2.613-1.39,8.317-3.862,28.76-12.029c6.353-2.525,11.931-4.451,17.108-5.911
		c13.508-3.788,23.687-4.122,34.09-1.14C210.282,7.253,216.641,15.415,216.177,19.834z M25.297,30.053 M25.297,30.053
		 M25.297,30.053 M25.297,30.053 M25.297,30.053 M25.297,30.053 M25.297,30.053"/>
</g>
    <g id="图层_2">
</g>
</svg>
